<svg xmlns="http://www.w3.org/2000/svg" viewBox="0 0 64 64"><rect width="64" height="64" rx="16" fill="#0f0f10"/><path transform="translate(23.989 49.000) scale(0.04658 -0.04658)" fill="#f4f4f2" d="M-62 0Q-74 0 -74 10Q-74 19 -58 23L-42 26Q-22 30 -7.5 45.5Q7 61 20 89L319 714Q324 724 329.0 727.0Q334 730 338 730Q343 730 346.5 727.0Q350 724 350 714L361 80Q362 52 368.0 41.5Q374 31 393 26L406 23Q418 20 418 11Q418 0 401 0H236Q223 0 223 10Q223 21 243 23L263 25Q280 27 286.5 36.0Q293 45 293 67L291 222Q291 248 264 248H157Q131 248 118 222L53 88Q26 31 71 25L85 23Q100 21 100 11Q100 0 83 0ZM161 278H273Q290 278 290 295L288 568H283L152 295Q148 288 151.0 283.0Q154 278 161 278Z"/></svg>